<?xml version="1.0" encoding="utf-8"?>
<!-- Generator: Adobe Illustrator 27.1.1, SVG Export Plug-In . SVG Version: 6.00 Build 0)  -->
<svg version="1.1" id="Calque_1" focusable="false" xmlns="http://www.w3.org/2000/svg" xmlns:xlink="http://www.w3.org/1999/xlink"
	 x="0px" y="0px" viewBox="0 0 476.3 476.3" style="enable-background:new 0 0 476.3 476.3;" xml:space="preserve">
<style type="text/css">
	.st0{fill:#FFFFFF;}
</style>
<g>
	<path d="M195.2,468V315.7h-63V234h63v-49.5c0-31.4,9.4-57.4,27.1-75.1c17.3-17.3,42-26.4,71.6-26.4c27.2,0,55.2,4.7,56.3,4.9
		l4.2,0.7v70.2h-36.3c-29.3,0-35.4,18.3-35.4,33.7V234h69.6l-12.5,81.7h-57.1V468H195.2z"/>
	<path d="M293.9,88c27.1,0,55.5,4.8,55.5,4.8v61h-31.3c-30.8,0-40.4,19.1-40.4,38.7V239h68.8l-11,71.7h-57.8V463h-77.5V310.7h-63
		V239h63v-54.5C200.2,122.3,237.2,88,293.9,88 M293.9,78c-31,0-57,9.6-75.2,27.9c-18.7,18.7-28.5,45.9-28.5,78.6V229h-53h-10v10
		v71.7v10h10h53V463v10h10h77.5h10v-10V320.7h47.8h8.6l1.3-8.5l11-71.7l1.8-11.5h-11.7h-58.8v-36.5c0-19.3,9.9-28.7,30.4-28.7h31.3
		h10v-10v-61v-8.5l-8.3-1.4C349.8,82.7,321.5,78,293.9,78L293.9,78z"/>
</g>
<g>
	<path class="st0" d="M272.7,468V305.7h58.5l9.5-61.7h-68v-51.6c0-12.1,3.4-22.5,9.9-30c7.9-9.1,19.8-13.7,35.5-13.7h26.3V96.9
		c-8.8-1.3-30.2-4.1-50.5-4.1c-55.5,0-88.7,34.2-88.7,91.5V244h-63v61.7h63V468H63c-29.2,0-53-23.8-53-53V63c0-29.2,23.8-53,53-53
		h352c29.2,0,53,23.8,53,53v352c0,29.2-23.8,53-53,53H272.7z"/>
	<path d="M415,15c26.5,0,48,21.5,48,48v352c0,26.5-21.5,48-48,48H277.7V310.7h57.8l11-71.7h-68.8v-46.6c0-19.6,9.6-38.7,40.4-38.7
		h31.3v-61c0,0-28.4-4.8-55.5-4.8c-56.7,0-93.7,34.3-93.7,96.5V239h-63v71.7h63V463H63c-26.5,0-48-21.5-48-48V63
		c0-26.5,21.5-48,48-48H415 M415,5H63C31,5,5,31,5,63v352c0,32,26,58,58,58h137.2h10v-10V310.7v-10h-10h-53V249h53h10v-10v-54.6
		c0-55,30.5-86.5,83.7-86.5c17.3,0,35.3,2,45.5,3.4v42.4h-21.3c-17.2,0-30.4,5.2-39.3,15.5c-7.3,8.4-11.1,19.9-11.1,33.2V239v10h10
		h57.1l-7.9,51.7h-49.2h-10v10V463v10h10H415c32,0,58-26,58-58V63C473,31,446.9,5,415,5L415,5z"/>
</g>
</svg>
