<?xml version="1.0" encoding="utf-8"?>
<!-- Generator: Adobe Illustrator 27.1.1, SVG Export Plug-In . SVG Version: 6.00 Build 0)  -->
<svg version="1.1" id="Calque_1" xmlns="http://www.w3.org/2000/svg" xmlns:xlink="http://www.w3.org/1999/xlink" x="0px" y="0px"
	 viewBox="0 0 525 522.5" style="enable-background:new 0 0 525 522.5;" xml:space="preserve">
<style type="text/css">
	.st0{fill:#FFFFFF;}
</style>
<g>
	<path d="M261.5,513c-67.4,0-130.9-26.3-178.5-74C35.3,391.4,9,327.9,9,260.5S35.3,129.6,83,82S194.1,8,261.5,8S392.4,34.3,440,82
		c47.7,47.7,74,111.1,74,178.5S487.7,391.4,440,439C392.4,486.7,328.9,513,261.5,513z"/>
	<path d="M261.5,13C398.2,13,509,123.8,509,260.5S398.2,508,261.5,508S14,397.2,14,260.5S124.8,13,261.5,13 M261.5,3
		C226.7,3,193,9.8,161.3,23.2c-30.7,13-58.2,31.5-81.8,55.2c-23.6,23.6-42.2,51.2-55.2,81.8C10.8,192,4,225.7,4,260.5
		s6.8,68.5,20.2,100.2c13,30.7,31.5,58.2,55.2,81.8c23.6,23.6,51.2,42.2,81.8,55.2C193,511.2,226.7,518,261.5,518
		s68.5-6.8,100.2-20.2c30.7-13,58.2-31.5,81.8-55.2c23.6-23.6,42.2-51.2,55.2-81.8C512.2,329,519,295.3,519,260.5
		s-6.8-68.5-20.2-100.2c-13-30.7-31.5-58.2-55.2-81.8c-23.6-23.6-51.2-42.2-81.8-55.2C330,9.8,296.3,3,261.5,3L261.5,3z"/>
</g>
<g>
	<path d="M363.1,485.9c0.4-0.2,0.8-0.3,1.2-0.5C363.9,485.5,363.5,485.7,363.1,485.9z"/>
	<path d="M374.4,480.5c0.3-0.2,0.6-0.3,0.9-0.5C375,480.2,374.7,480.3,374.4,480.5z"/>
	<path d="M386.7,323.5c2.1-21,3.3-42.5,3.3-64s-1.2-43-3.3-64H501c-3-11-6.6-21.7-11-32H382.7C374,107.3,357.5,57,333.6,23.2
		c-19.5-5.8-40-9.4-61.1-10.2c35.3,9.9,64.8,69.2,78,150.5h-177C186.7,82.3,216.2,23,251.4,13c-21.3,0.9-41.8,4.6-61.4,10.6
		c-23.7,33.8-40.1,83.9-48.7,139.9H35c-4.4,10.3-8.1,21-11,32h113.3c-2.1,21-3.3,42.5-3.3,64s1.2,43,3.2,64H23.7
		c2.9,11,6.5,21.7,10.9,32c2.6,0,106.7,0,106.7,0c8.8,56.7,25.5,107.4,49.7,141.2c21,6.3,43.2,10,66.2,10.5
		c-37.7-4.8-69.8-66-83.7-151.7h177c-13.9,85.8-46,147-83.8,151.7c22.9-0.4,45.1-3.9,66.1-10.1c24.4-33.8,41.2-84.7,50-141.6h107.6
		c4.3-10.3,8-21,10.9-32H386.7z M354.6,323.5H169.3c-2.1-20.5-3.3-41.8-3.3-64s1.2-43.5,3.3-64h185.3c2.1,20.5,3.3,41.8,3.3,64
		S356.7,303,354.6,323.5z"/>
	<path d="M380.1,477.5c0.1,0,0.2-0.1,0.3-0.1C380.3,477.4,380.2,477.4,380.1,477.5z"/>
	<path d="M368.6,483.3c0.4-0.2,0.9-0.4,1.3-0.6C369.5,482.9,369,483.1,368.6,483.3z"/>
	<path d="M353,490.1c0.2-0.1,0.4-0.2,0.7-0.3C353.5,489.9,353.3,490,353,490.1z"/>
	<path d="M340.8,494.5c0.9-0.3,1.8-0.6,2.8-1C342.7,493.9,341.8,494.2,340.8,494.5z"/>
	<path d="M334.7,496.5c0.9-0.3,1.8-0.6,2.7-0.8C336.5,495.9,335.6,496.2,334.7,496.5z"/>
	<path d="M347,492.4c0.9-0.3,1.8-0.7,2.6-1C348.7,491.8,347.8,492.1,347,492.4z"/>
</g>
<path class="st0" d="M350.5,164C336,74.7,301.8,12,262,12s-74,62.7-88.5,152H350.5z M166,260c0,22.2,1.2,43.5,3.3,64h185.3
	c2.1-20.5,3.3-41.8,3.3-64s-1.2-43.5-3.3-64H169.3C167.2,216.5,166,237.8,166,260z M490.8,164c-28.6-67.9-86.5-120.4-158-141.6
	c24.4,33.8,41.2,84.7,50,141.6H490.8z M191.2,22.4C119.8,43.6,61.8,96.1,33.3,164h108C150,107.1,166.8,56.2,191.2,22.4L191.2,22.4z
	 M501.4,196H386.8c2.1,21,3.3,42.5,3.3,64s-1.2,43-3.3,64h114.6c5.5-20.5,8.6-41.8,8.6-64S506.9,216.5,501.4,196L501.4,196z
	 M134,260c0-21.5,1.2-43,3.3-64H22.6c-5.4,20.5-8.6,41.8-8.6,64s3.2,43.5,8.6,64h114.6C135.2,303,134,281.5,134,260z M173.5,356
	c14.5,89.3,48.7,152,88.5,152s74-62.7,88.5-152H173.5z M332.8,497.6c71.4-21.2,129.4-73.7,158-141.6h-108
	C374,412.9,357.2,463.8,332.8,497.6z M33.3,356c28.6,67.9,86.5,120.4,158,141.6c-24.4-33.8-41.2-84.7-50-141.6H33.3z"/>
</svg>
