<?xml version="1.0" encoding="utf-8"?>
<!-- Generator: Adobe Illustrator 27.1.1, SVG Export Plug-In . SVG Version: 6.00 Build 0)  -->
<svg version="1.1" id="Calque_1" xmlns="http://www.w3.org/2000/svg" xmlns:xlink="http://www.w3.org/1999/xlink" x="0px" y="0px"
	 viewBox="0 0 1017.4 1019.5" style="enable-background:new 0 0 1017.4 1019.5;" xml:space="preserve">
<style type="text/css">
	.st0{stroke:#000000;stroke-miterlimit:10;}
	.st1{fill:#FFFFFF;}
</style>
<g>
	<path class="st0" d="M342.1,274.8c0,50.2,40.7,90.9,90.9,90.9s90.8-40.7,90.8-90.8S483.2,184,433,184
		C382.9,184,342.1,224.6,342.1,274.8z"/>
	<path class="st0" d="M543.5,255.6c0,72.1,58.4,130.5,130.4,130.5c72.1,0,130.5-58.4,130.5-130.5S746,125.1,673.9,125.1
		S543.5,183.5,543.5,255.6z"/>
	<path class="st0" d="M195.6,262.7c0,35.5,28.8,64.3,64.3,64.3s64.4-28.8,64.4-64.3c0-35.6-28.9-64.3-64.4-64.3
		S195.6,227.2,195.6,262.7z"/>
	<path class="st0" d="M843.2,560.7c0-0.1,0-0.2,0-0.4c-0.3-76.5-75.8-138.5-168.9-138.4c-49.9,0-94.8,17.8-125.7,46.1
		c-11-44.1-58.5-77.2-115.3-77.2c-36,0-68.3,13.2-89.8,34.2v-11.5v-0.2v-0.1v-0.1c-0.2-37.9-37.5-68.3-83.4-68.3
		c-46.1,0-83.4,30.7-83.4,68.5c0,1.9,0.1,3.9,0.3,5.7v159.2h138.9v142.2h190v169.5h337.3V561.1C843.2,561,843.2,560.7,843.2,560.7z"
		/>
</g>
<g>
	<g>
		<g>
			<path class="st1" d="M120.1,1004.9c-58,0-105.2-47.2-105.2-105.2V120.2c0-58,47.2-105.1,105.2-105.1h779.8
				c28.1,0,54.5,11,74.4,30.8c19.8,19.9,30.7,46.2,30.7,74.3v779.5c0,58-47.2,105.2-105.2,105.2H120.1z M838.1,890.1V560.3
				c-0.3-73.5-73.7-133.4-163.7-133.4h-0.2c-46.7,0-91.2,16.3-122.3,44.8l-6.2,5.7l-2-8.2c-10.6-42.5-57.1-73.4-110.4-73.4
				c-33.5,0-65,11.9-86.3,32.8l-8.5,8.3v-23.8c-0.2-34.9-35.4-63.3-78.4-63.3c-43.2,0-78.4,28.5-78.4,63.5c0,1.8,0.1,3.6,0.3,5.1
				l0,0.3v154.5h138.9v142.2h190v174.7H838.1z M673.8,130.1c-69.1,0-125.4,56.3-125.4,125.5c0,69.2,56.3,125.5,125.4,125.5
				c69.2,0,125.5-56.3,125.5-125.5C799.3,186.4,743,130.1,673.8,130.1z M432.9,189c-47.4,0-85.9,38.5-85.9,85.8
				c0,47.4,38.5,85.9,85.9,85.9c47.3,0,85.8-38.5,85.8-85.8C518.7,227.6,480.3,189,432.9,189z M259.8,203.4
				c-32.7,0-59.3,26.6-59.3,59.3s26.6,59.3,59.3,59.3c32.8,0,59.4-26.6,59.4-59.3S292.6,203.4,259.8,203.4z"/>
			<path d="M899.9,20.1c55.2,0,100.1,44.8,100,100.1v779.5c0,55.5-44.9,100.2-100.2,100.2H120.1c-55.3,0-100.2-44.8-100.2-100.2
				V120.2c0-55.3,44.9-100.1,100.2-100.1h779.6C899.8,20.1,899.9,20.1,899.9,20.1 M673.8,386.1c72.1,0,130.5-58.4,130.5-130.5
				s-58.4-130.5-130.5-130.5s-130.4,58.4-130.4,130.5S601.8,386.1,673.8,386.1 M432.9,365.7c50.2,0,90.8-40.7,90.8-90.8
				c0-50.1-40.6-90.9-90.8-90.9c-50.1,0-90.9,40.6-90.9,90.8S382.7,365.7,432.9,365.7 M259.8,327c35.5,0,64.4-28.8,64.4-64.3
				c0-35.6-28.9-64.3-64.4-64.3s-64.3,28.8-64.3,64.3S224.3,327,259.8,327 M176.9,578.2h138.9v142.2h190v174.7h337.3v-334
				c0-0.1,0-0.4,0-0.4c0-0.1,0-0.2,0-0.4c-0.3-76.4-75.7-138.4-168.7-138.4c-0.1,0-0.2,0-0.2,0c-49.9,0-94.8,17.8-125.7,46.1
				c-11-44.1-58.5-77.2-115.3-77.2c-36,0-68.3,13.2-89.8,34.2v-11.5v-0.2v-0.1v-0.1c-0.2-37.9-37.5-68.3-83.4-68.3
				c-46.1,0-83.4,30.7-83.4,68.5c0,1.9,0.1,3.9,0.3,5.7V578.2 M899.9,10.1l-0.2,0H120.1C59.4,10.1,9.9,59.5,9.9,120.2v779.5
				c0,29.5,11.5,57.1,32.3,77.9c20.8,20.8,48.5,32.3,77.9,32.3h779.6c29.4,0,57.1-11.4,77.9-32.2c20.8-20.8,32.3-48.5,32.3-78V120.2
				c0.1-29.4-11.4-57-32.1-77.8C957,21.6,929.4,10.1,899.9,10.1L899.9,10.1z M673.8,376.1c-66.4,0-120.4-54.1-120.4-120.5
				s54-120.5,120.4-120.5c66.4,0,120.5,54.1,120.5,120.5S740.3,376.1,673.8,376.1L673.8,376.1z M432.9,355.7
				c-44.6,0-80.9-36.3-80.9-80.9c0-44.6,36.3-80.8,80.9-80.8c44.6,0,80.8,36.3,80.8,80.9C513.7,319.5,477.5,355.7,432.9,355.7
				L432.9,355.7z M259.8,317c-29.9,0-54.3-24.4-54.3-54.3s24.4-54.3,54.3-54.3c30,0,54.4,24.4,54.4,54.3S289.8,317,259.8,317
				L259.8,317z M186.9,568.2V419v-0.6l-0.1-0.6c-0.2-1.4-0.2-3-0.2-4.6c0-32.3,32.9-58.5,73.4-58.5c40.3,0,73.2,26.2,73.4,58.3v0.1
				v0.1v0.2V425v23.7l17-16.6c20.4-19.9,50.6-31.4,82.8-31.4c51.1,0,95.5,29.3,105.6,69.6l4.1,16.3l12.4-11.3
				c30.2-27.6,73.5-43.5,118.9-43.5l0.2,0c87.2,0,158.4,57.6,158.7,128.4l0,0.4v0.4v324H515.8V720.4v-10h-10h-180V578.2v-10h-10
				H186.9L186.9,568.2z"/>
		</g>
	</g>
</g>
</svg>
