<svg version="1.1" xmlns="http://www.w3.org/2000/svg" xmlns:xlink="http://www.w3.org/1999/xlink" x="0px" y="0px" viewBox="0 0 1000 1000" enable-background="new 0 0 1000 1000" xml:space="preserve">
<g><g><path fill="#ffffff" d="M889.8,10.1H110.2C54.9,10.1,10,54.9,10,110.2v779.5c0,55.4,44.9,100.2,100.2,100.2h779.6c55.3,0,100.2-44.7,100.2-100.2V110.2C990.1,54.8,945.1,10,889.8,10.1z M663.9,115.1c72.1,0,130.5,58.4,130.5,130.5c0,72.1-58.4,130.5-130.5,130.5c-72,0-130.4-58.4-130.4-130.5C533.5,173.5,591.8,115.1,663.9,115.1z M423,174c50.2,0,90.8,40.8,90.8,90.9c0,50.1-40.6,90.8-90.8,90.8c-50.2,0-90.9-40.7-90.9-90.9S372.9,174,423,174z M249.9,188.4c35.5,0,64.4,28.7,64.4,64.3c0,35.5-28.9,64.3-64.4,64.3c-35.5,0-64.3-28.8-64.3-64.3C185.6,217.2,214.4,188.4,249.9,188.4z M833.2,550.3c0,0.2,0,0.3,0,0.4c0,0,0,0.3,0,0.4v334H495.9V710.4H305.9V568.2H167V409c-0.2-1.8-0.3-3.8-0.3-5.7c0-37.8,37.3-68.5,83.4-68.5c45.9,0,83.2,30.4,83.4,68.3v0.1v0.1v0.2V415c21.5-21,53.8-34.2,89.8-34.2c56.8,0,104.3,33.1,115.3,77.2c30.9-28.3,75.8-46.1,125.7-46.1C757.4,411.8,832.9,473.8,833.2,550.3z"/></g><g></g><g></g><g></g><g></g><g></g><g></g><g></g><g></g><g></g><g></g><g></g><g></g><g></g><g></g><g></g></g>
</svg>