<?xml version="1.0" encoding="utf-8"?>
<!-- Generator: Adobe Illustrator 27.1.1, SVG Export Plug-In . SVG Version: 6.00 Build 0)  -->
<svg version="1.1" id="Calque_1" focusable="false" xmlns="http://www.w3.org/2000/svg" xmlns:xlink="http://www.w3.org/1999/xlink"
	 x="0px" y="0px" viewBox="0 0 476 476" style="enable-background:new 0 0 476 476;" xml:space="preserve">
<style type="text/css">
	.st0{stroke:#000000;stroke-miterlimit:10;}
	.st1{fill:#FFFFFF;}
</style>
<path class="st0" d="M398,138.8c-11.8,5.1-24.6,8.8-37.8,10.2c13.6-8.1,23.9-20.9,28.8-36.1c-12.6,7.5-26.8,13-41.6,15.8
	c-12-12.8-29-20.7-47.9-20.7c-40,0-73.3,36.1-64,80.6c-54.4-2.8-102.9-28.8-135.2-68.6c-5.7,9.7-8.9,20.9-8.9,33.1
	c0,21.9,10.9,42.4,29.2,54.6c-10.7-0.4-20.9-3.4-29.6-8.3v0.8c0,31.9,22.5,58.3,52.5,64.4c-10.4,2.7-19.5,2.7-29.6,1.2
	c8.3,26,32.5,44.9,61.3,45.5c-22.5,17.6-50.7,28-81.4,28c-5.4,0-10.5-0.2-15.8-0.8c29,18.6,63.5,29.4,100.7,29.4
	c120.6,0,186.6-99.9,186.6-186.6c0-2.8,0-5.7-0.2-8.5C377.9,163.5,389.1,151.9,398,138.8z"/>
<g>
	<path class="st1" d="M62,467.5c-29.2,0-53-23.8-53-53v-352c0-29.2,23.8-53,53-53h352c29.2,0,53,23.8,53,53v352
		c0,29.2-23.8,53-53,53H62z M98.3,344.7c24.9,12.3,52.3,18.7,80.4,18.7c113.7,0,181.6-92.3,181.6-181.6c0-2.7,0-5.5-0.2-8.1
		l-0.2-2.8l2.2-1.6c7.8-5.7,14.9-12.1,21.3-19.4c-7.6,2.2-15.2,3.8-22.7,4.6l-22.7,2.4l19.6-11.7c8.6-5.1,15.7-12.3,20.8-20.7
		c-9.7,4.4-19.9,7.6-30.1,9.6l-2.7,0.5l-1.9-2c-11.6-12.3-27.3-19.1-44.3-19.1c-18.4,0-35.6,8.2-47.1,22.4c-11.7,14.4-16,33-12,52.2
		l1.3,6.3l-6.5-0.3c-51.6-2.7-100-26.1-133.9-64.6c-3.3,7.5-4.9,15.6-4.9,24.1c0,20.3,10.1,39.2,27,50.4l14.7,9.8l-17.7-0.7
		c-8.2-0.3-16.4-2.1-24-5.1c3.1,25.6,22.4,46.9,48,52.1l21.2,4.3l-20.9,5.4c-6.1,1.6-12.1,2.4-18.3,2.4c-1.6,0-3.2-0.1-4.9-0.2
		c9.7,20.5,30.4,34.2,53.7,34.7l14,0.3l-11.1,8.6C155.2,333.8,127.6,343.8,98.3,344.7z"/>
	<path d="M414,14.5c26.5,0,48,21.5,48,48v352c0,26.5-21.5,48-48,48H62c-26.5,0-48-21.5-48-48v-352c0-26.5,21.5-48,48-48H414
		 M235.5,189.1c-54.4-2.8-102.9-28.8-135.2-68.6c-5.7,9.7-8.9,20.9-8.9,33.1c0,21.9,10.9,42.4,29.2,54.6
		c-10.7-0.4-20.9-3.4-29.6-8.3v0.8c0,31.9,22.5,58.3,52.5,64.4c-6,1.5-11.5,2.2-17,2.2c-4.1,0-8.3-0.4-12.6-1
		c8.3,26,32.5,44.9,61.3,45.5c-22.5,17.6-50.7,28-81.4,28c-5.4,0-10.5-0.2-15.8-0.8c29,18.6,63.5,29.4,100.7,29.4
		c120.6,0,186.6-99.9,186.6-186.6c0-2.8,0-5.7-0.2-8.5c12.8-9.3,24-20.9,32.9-34c-11.8,5.1-24.6,8.8-37.8,10.2
		c13.6-8.1,23.9-20.9,28.8-36.1c-12.6,7.5-26.8,13-41.6,15.8c-12-12.8-29-20.7-47.9-20.7C259.5,108.5,226.2,144.6,235.5,189.1
		 M414,4.5H62c-32,0-58,26-58,58v352c0,32,26,58,58,58h352c32,0,58-26,58-58v-352C472,30.5,446,4.5,414,4.5L414,4.5z M247.9,199.8
		l-2.7-12.7c-3.7-17.7,0.2-34.7,11-48c10.6-13.1,26.4-20.6,43.2-20.6c15.6,0,30,6.2,40.6,17.5l3.8,4l5.4-1c4.3-0.8,8.6-1.9,12.9-3.1
		c-2.2,1.8-4.6,3.5-7.1,5l-39.2,23.3l45.4-4.8c2.1-0.2,4.2-0.5,6.3-0.8c-2.7,2.3-5.5,4.5-8.3,6.6l-4.5,3.3l0.4,5.5
		c0.2,2.4,0.2,5.2,0.2,7.8c0,86.8-66.1,176.6-176.6,176.6c-20.9,0-41.3-3.6-60.6-10.6c23-3.9,44.5-13.4,63.3-28.1l22.1-17.3
		l-28.1-0.6c-18.6-0.4-35.3-9.8-45.2-24.6c5.3-0.3,10.5-1.1,15.8-2.4l41.8-10.9l-42.4-8.6c-20.8-4.2-37-20-42.5-39.7
		c5.6,1.5,11.4,2.4,17.2,2.6l35.4,1.3L126,199.9c-15.5-10.3-24.7-27.6-24.7-46.3c0-5.1,0.6-9.9,1.9-14.6
		c34.4,35.8,81.6,57.5,131.7,60.1L247.9,199.8L247.9,199.8z"/>
</g>
</svg>
