<?xml version="1.0" encoding="utf-8"?>
<!-- Generator: Adobe Illustrator 27.1.1, SVG Export Plug-In . SVG Version: 6.00 Build 0)  -->
<svg version="1.1" id="Calque_1" focusable="false" xmlns="http://www.w3.org/2000/svg" xmlns:xlink="http://www.w3.org/1999/xlink"
	 x="0px" y="0px" viewBox="0 0 576 412" style="enable-background:new 0 0 576 412;" xml:space="preserve">
<style type="text/css">
	.st0{stroke:#000000;stroke-miterlimit:10;}
	.st1{fill:#FFFFFF;}
</style>
<polygon class="st0" points="374.9,206.4 232.1,125.2 232.1,287.6 "/>
<g>
	<path class="st1" d="M288,403c-7,0-171.9-0.1-214.7-11.7c-25.7-6.9-45.1-26.1-51.8-51.4C10.1,297,9.9,210.1,9.9,206.4
		c0-3.7,0.1-90.6,11.6-133.6c6.7-25.4,26.6-45.4,51.8-52.1C116.1,9.1,281,9,288,9c7,0,171.9,0.1,214.7,11.7
		c25.2,6.8,45.1,26.8,51.8,52.1c11.4,43,11.6,129.9,11.6,133.6c0,3.7-0.1,90.6-11.6,133.6c-6.7,25.2-26.1,44.4-51.8,51.4
		C459.9,402.9,295,403,288,403z M237.1,279l127.6-72.6l-127.6-72.6V279z"/>
	<path d="M288,14c0,0,170.8,0,213.4,11.5c23.5,6.3,42,24.9,48.3,48.6c11.4,42.9,11.4,132.3,11.4,132.3s0,89.4-11.4,132.3
		c-6.3,23.7-24.8,41.5-48.3,47.8C458.8,398,288,398,288,398s-170.8,0-213.4-11.5c-23.5-6.3-42-24.2-48.3-47.8
		c-11.4-42.9-11.4-132.3-11.4-132.3s0-89.4,11.4-132.3c6.3-23.6,24.8-42.3,48.3-48.6C117.2,14,288,14,288,14 M232.1,287.6
		l142.7-81.2l-142.7-81.2V287.6 M288,4c-7,0-172.6,0.1-216,11.8c-26.9,7.2-48.1,28.6-55.3,55.7C5.1,115.1,4.9,202.7,4.9,206.4
		c0,3.7,0.1,91.2,11.7,134.9c3.5,13.3,10.6,25.3,20.3,35c9.6,9.5,21.7,16.4,35,19.9C115.4,407.9,281,408,288,408s172.6-0.1,216-11.8
		c13.3-3.6,25.4-10.5,35-19.9c9.8-9.6,16.8-21.7,20.3-35c11.6-43.6,11.7-131.2,11.7-134.9c0-3.7-0.1-91.2-11.7-134.9
		c-7.2-27.1-28.4-48.4-55.3-55.7C460.6,4.1,295,4,288,4L288,4z M242.1,270.4v-128l112.5,64L242.1,270.4L242.1,270.4z"/>
</g>
</svg>
