<?xml version="1.0" encoding="utf-8"?>
<!-- Generator: Adobe Illustrator 27.1.1, SVG Export Plug-In . SVG Version: 6.00 Build 0)  -->
<svg version="1.1" id="Calque_1" xmlns="http://www.w3.org/2000/svg" xmlns:xlink="http://www.w3.org/1999/xlink" x="0px" y="0px"
	 viewBox="0 0 20.5 20.5" style="enable-background:new 0 0 20.5 20.5;" xml:space="preserve">
<g>
	<path d="M10.3,0.2c-5.5,0-10,4.5-10,10s4.5,10,10,10s10-4.5,10-10C20.3,4.7,15.8,0.2,10.3,0.2z M10.3,18.2c-4.4,0-8-3.6-8-8
		s3.6-8,8-8s8,3.6,8,8C18.3,14.6,14.7,18.2,10.3,18.2z"/>
	<polygon points="5.6,13.5 7,14.9 10.3,11.6 13.6,14.9 15,13.5 10.3,8.8 	"/>
	<polygon points="5.6,9.5 7,10.9 10.3,7.6 13.6,10.9 15,9.5 10.3,4.8 	"/>
</g>
</svg>
